HIERARCHY
ROOT Hips
{
  OFFSET 54.3981 95.7643 12.398
  CHANNELS 6 Xposition Yposition Zposition Zrotation Xrotation Yrotation
  JOINT spine
  {
    OFFSET 0 7.96568 0.458067
    CHANNELS 3 Zrotation Xrotation Yrotation
    JOINT spine1
    {
      OFFSET 0 10.2431 0
      CHANNELS 3 Zrotation Xrotation Yrotation
      JOINT spine2
      {
        OFFSET 0 9.81475 0
        CHANNELS 3 Zrotation Xrotation Yrotation
        JOINT Neck
        {
          OFFSET 0 25.1986 1.20138
          CHANNELS 3 Zrotation Xrotation Yrotation
          JOINT Head
          {
            OFFSET 0 7.61315 0
            CHANNELS 3 Zrotation Xrotation Yrotation
            End Site
            {
              OFFSET 0 18.4281 -6.07733
            }
          }
        }
        JOINT RightShoulder
        {
          OFFSET -4.1327 10.5992 -0.575451
          CHANNELS 3 Zrotation Xrotation Yrotation
          JOINT RightArm
          {
            OFFSET 0 13.9018 0
            CHANNELS 3 Zrotation Xrotation Yrotation
            JOINT RightArmRoll
            {
              OFFSET 0 7.01788 0
              CHANNELS 3 Zrotation Xrotation Yrotation
              JOINT RightForeArm
              {
                OFFSET 0 20.4406 0
                CHANNELS 3 Zrotation Xrotation Yrotation
                JOINT RightForeArmRoll
                {
                  OFFSET 0 7.87515 0
                  CHANNELS 3 Zrotation Xrotation Yrotation
                  JOINT RightHand
                  {
                    OFFSET 0 15.8037 0
                    CHANNELS 3 Zrotation Xrotation Yrotation
                    End Site
                    {
                      OFFSET 0 0 0
                    }
                  }
                }
              }
            }
          }
        }
        JOINT LeftShoulder
        {
          OFFSET 4.1327 10.5992 -0.575451
          CHANNELS 3 Zrotation Xrotation Yrotation
          JOINT LeftArm
          {
            OFFSET 0 13.9018 0
            CHANNELS 3 Zrotation Xrotation Yrotation
            JOINT LeftArmRoll
            {
              OFFSET 0 7.01788 0
              CHANNELS 3 Zrotation Xrotation Yrotation
              JOINT LeftForeArm
              {
                OFFSET 0 20.4406 0
                CHANNELS 3 Zrotation Xrotation Yrotation
                JOINT LeftForeArmRoll
                {
                  OFFSET 0 7.87515 0
                  CHANNELS 3 Zrotation Xrotation Yrotation
                  JOINT LeftHand
                  {
                    OFFSET 0 15.8037 0
                    CHANNELS 3 Zrotation Xrotation Yrotation
                    End Site
                    {
                      OFFSET 0 0 0
                    }
                  }
                }
              }
            }
          }
        }
      }
    }
  }
  JOINT RightUpLeg
  {
    OFFSET -7.06048 -1.2947 -1.0861
    CHANNELS 3 Zrotation Xrotation Yrotation
    JOINT RightUpLegRoll
    {
      OFFSET 0 18.5308 0
      CHANNELS 3 Zrotation Xrotation Yrotation
      JOINT RightLeg
      {
        OFFSET 0 -22.9476 0
        CHANNELS 3 Zrotation Xrotation Yrotation
        JOINT RightLegRoll
        {
          OFFSET 0 23.0226 0
          CHANNELS 3 Zrotation Xrotation Yrotation
          JOINT RightFoot
          {
            OFFSET 0 19.1625 0
            CHANNELS 3 Zrotation Xrotation Yrotation
            JOINT RightToeBase
            {
              OFFSET 0 16.0188 0
              CHANNELS 3 Zrotation Xrotation Yrotation
              End Site
              {
                OFFSET 0.00678979 7.75782 -0.894207
              }
            }
          }
        }
      }
    }
  }
  JOINT LeftUpLeg
  {
    OFFSET 7.06048 -1.2947 -1.0861
    CHANNELS 3 Zrotation Xrotation Yrotation
    JOINT LeftUpLegRoll
    {
      OFFSET 0 18.5309 0
      CHANNELS 3 Zrotation Xrotation Yrotation
      JOINT LeftLeg
      {
        OFFSET 0 22.9475 0
        CHANNELS 3 Zrotation Xrotation Yrotation
        JOINT LeftLegRoll
        {
          OFFSET 0 23.2355 0
          CHANNELS 3 Zrotation Xrotation Yrotation
          JOINT LeftFoot
          {
            OFFSET 0 18.9496 0
            CHANNELS 3 Zrotation Xrotation Yrotation
            JOINT LeftToeBase
            {
              OFFSET 0 16.0188 0
              CHANNELS 3 Zrotation Xrotation Yrotation
              End Site
              {
                OFFSET -0.0304289 7.75782 -0.894207
              }
            }
          }
        }
      }
    }
  }
}
MOTION
Frames: 9
Frame Time: 0.00208333
54.7706 95.7279 13.443 0.244751 -1.64988 2.12262 -0.743097 -2.42422 0.460198 -1.47417 -0.852769 0.994814 -1.48621 0.79188 1.01957 18.0818 27.3917 -10.4075 -8.91332 1.05801 -4.2138 9.8921 -15.9074 -14.9944 -7.92715 42.5727 103.187 -1.06108e-005 1.23363e-007 -1.89359e-006 -17.3752 43.3471 16.6563 4.48393e-006 -4.44774e-006 -3.00997 8.03022 -4.95136 0.697629 -82.304 3.35234 1.43952 -91.6674 20.3004 -29.2575 -1.12459e-005 -6.69949e-007 -3.01035e-006 2.79095 -0.0197562 0.490829 6.68563e-007 1.98269e-006 3.28344 -8.03123 -4.95136 -0.697588 174.687 -2.58211 -1.34244 180 7.01522e-015 178.821 177.766 7.21924 179.594 3.98562e-006 -6.56714e-007 0.161584 -20.4806 69.9874 21.351 8.17534 25.8005 -2.73091 -175.38 -2.86708 1.35088 4.54188e-006 -4.6773e-006 -1.16283 -1.88281 -2.98779 0.0410798 2.92584e-006 -1.62902e-006 -0.0332306 19.0384 68.2241 -19.7561 -8.13649 25.2327 3.48773 
54.7773 95.7464 13.4619 0.243388 -1.67429 2.1148 -0.742365 -2.41897 0.45942 -1.47429 -0.842392 0.99251 -1.48632 0.802257 1.01727 18.0531 27.4008 -10.3962 -8.89263 1.03621 -4.212 10.0308 -15.9017 -14.9631 -7.83275 42.5931 102.983 -1.06108e-005 1.23363e-007 -1.89359e-006 -17.318 43.0559 16.5055 4.48393e-006 -4.44774e-006 -3.00997 8.03022 -4.95136 0.697629 -82.2733 3.33679 1.441 -91.7063 20.2882 -29.1998 -1.12459e-005 -6.69949e-007 -3.01035e-006 2.73619 -0.0192293 0.502058 6.68563e-007 1.98269e-006 3.28351 -8.03123 -4.95136 -0.697588 174.681 -2.60588 -1.33059 180 7.01522e-015 178.821 177.755 7.21239 179.594 3.98562e-006 -6.56714e-007 0.161019 -20.4678 69.9734 21.3365 8.17548 25.8025 -2.72789 -175.385 -2.89723 1.35105 4.54188e-006 -4.6773e-006 -1.16325 -1.88291 -2.98623 0.0411586 2.92584e-006 -1.62902e-006 -0.0332213 19.0366 68.222 -19.7516 -8.13649 25.2327 3.48773 
54.7908 95.7403 13.4641 0.242544 -1.69937 2.10704 -0.741639 -2.41355 0.458604 -1.47448 -0.831659 0.99005 -1.48648 0.812991 1.01482 18.0243 27.414 -10.3835 -8.87061 1.00791 -4.20849 10.17 -15.8963 -14.9326 -7.74371 42.6126 102.779 -1.06108e-005 1.23363e-007 -1.89359e-006 -17.2623 42.7524 16.3526 4.48392e-006 -4.44774e-006 -3.00997 8.03022 -4.95136 0.697629 -82.2419 3.32035 1.44269 -91.747 20.2761 -29.1412 -1.12459e-005 -6.69949e-007 -3.01035e-006 2.6813 -0.0186757 0.513275 6.68563e-007 1.98269e-006 3.28359 -8.03123 -4.95136 -0.697588 174.674 -2.63044 -1.31776 180 7.01522e-015 178.82 177.744 7.20482 179.595 3.98562e-006 -6.56714e-007 0.16041 -20.4542 69.9586 21.3211 8.17562 25.8045 -2.72478 -175.39 -2.92859 1.35165 4.54188e-006 -4.6773e-006 -1.16366 -1.88293 -2.98393 0.0412466 2.92584e-006 -1.62902e-006 -0.0332121 19.0346 68.2198 -19.7468 -8.13649 25.2327 3.48773 
54.782 95.7489 13.4471 0.242082 -1.72488 2.09907 -0.74089 -2.40804 0.45776 -1.47462 -0.82073 0.987474 -1.4866 0.82392 1.01224 17.9944 27.4308 -10.3692 -8.84679 0.974581 -4.20358 10.3088 -15.891 -14.9023 -7.65595 42.6322 102.575 -1.06108e-005 1.23363e-007 -1.89359e-006 -17.2083 42.4412 16.1993 4.48393e-006 -4.44774e-006 -3.00996 8.03022 -4.95136 0.697629 -82.2102 3.30329 1.44456 -91.7887 20.2639 -29.0819 -1.12459e-005 -6.69949e-007 -3.01035e-006 2.62626 -0.018103 0.524487 6.68563e-007 1.98269e-006 3.28366 -8.03123 -4.95136 -0.697588 174.667 -2.65548 -1.30423 180 7.01522e-015 178.82 177.732 7.19674 179.595 3.98562e-006 -6.56714e-007 0.159769 -20.4401 69.9433 21.3051 8.17576 25.8065 -2.72165 -175.396 -2.96084 1.35259 4.54188e-006 -4.6773e-006 -1.16406 -1.88291 -2.98105 0.0413413 2.92584e-006 -1.62902e-006 -0.0332031 19.0326 68.2177 -19.7417 -8.13649 25.2327 3.48773 
54.794 95.7476 13.458 0.241867 -1.75061 2.09066 -0.740091 -2.40253 0.456897 -1.47464 -0.809769 0.984818 -1.48658 0.834882 1.00959 17.9624 27.4507 -10.3535 -8.82069 0.937722 -4.19757 10.4466 -15.8853 -14.8718 -7.56538 42.653 102.37 -1.06108e-005 1.23363e-007 -1.89359e-006 -17.1557 42.1266 16.0467 4.48392e-006 -4.44774e-006 -3.00996 8.03022 -4.95136 0.697629 -82.1787 3.28584 1.4466 -91.8309 20.2515 -29.0224 -1.12459e-005 -6.69949e-007 -3.01035e-006 2.57105 -0.0175188 0.535699 6.68563e-007 1.98269e-006 3.28374 -8.03123 -4.95136 -0.697588 174.659 -2.68072 -1.29028 180 7.01522e-015 178.82 177.719 7.1883 179.596 3.98562e-006 -6.56714e-007 0.159108 -20.4258 69.9276 21.2889 8.1759 25.8085 -2.71858 -175.403 -2.99369 1.35378 4.54188e-006 -4.6773e-006 -1.16445 -1.88287 -2.97773 0.0414404 2.92584e-006 -1.62902e-006 -0.0331943 19.0306 68.2155 -19.7365 -8.13649 25.2327 3.48773 
54.8021 95.7151 13.4508 0.241762 -1.77631 2.08154 -0.739213 -2.3971 0.456027 -1.47442 -0.798937 0.982121 -1.48633 0.845714 1.00689 17.927 27.4731 -10.3361 -8.79184 0.898813 -4.19076 10.5826 -15.8789 -14.8406 -7.46788 42.6761 102.161 -1.06108e-005 1.23363e-007 -1.89359e-006 -17.1045 41.8132 15.8961 4.48393e-006 -4.44774e-006 -3.00996 8.03022 -4.95136 0.697629 -82.1478 3.26826 1.44878 -91.8728 20.2386 -28.9631 -1.12459e-005 -6.69949e-007 -3.01035e-006 2.51566 -0.0169305 0.546917 6.68563e-007 1.98269e-006 3.28381 -8.03123 -4.95136 -0.697588 174.651 -2.70586 -1.27618 180 7.01522e-015 178.819 177.707 7.17974 179.596 3.98562e-006 -6.56714e-007 0.158437 -20.4116 69.912 21.2727 8.17603 25.8104 -2.71564 -175.41 -3.0268 1.35511 4.54188e-006 -4.6773e-006 -1.16484 -1.88285 -2.97415 0.0415414 2.92584e-006 -1.62902e-006 -0.0331857 19.0286 68.2134 -19.7314 -8.13649 25.2327 3.48773 
54.8076 95.7201 13.4553 0.24163 -1.80175 2.07147 -0.738229 -2.39183 0.455159 -1.47387 -0.788397 0.979421 -1.48576 0.856255 1.00418 17.8874 27.4978 -10.317 -8.75976 0.859339 -4.18344 10.7161 -15.8714 -14.8082 -7.35934 42.7024 101.948 -1.06108e-005 1.23363e-007 -1.89359e-006 -17.0544 41.5055 15.7485 4.48392e-006 -4.44774e-006 -3.00996 8.03022 -4.95136 0.697629 -82.1181 3.2508 1.45108 -91.9139 20.2251 -28.9043 -1.12459e-005 -6.69949e-007 -3.01035e-006 2.46007 -0.0163458 0.558147 6.68563e-007 1.98269e-006 3.28388 -8.03123 -4.95136 -0.697588 174.643 -2.73062 -1.26222 180 7.01522e-015 178.819 177.695 7.17121 179.597 3.98562e-006 -6.56714e-007 0.157768 -20.3977 69.8966 21.257 8.17616 25.8122 -2.71289 -175.417 -3.05988 1.35651 4.54188e-006 -4.6773e-006 -1.16524 -1.8829 -2.97046 0.0416419 2.92584e-006 -1.62902e-006 -0.0331773 19.0266 68.2114 -19.7263 -8.13649 25.2327 3.48773 
54.8261 95.7291 13.4721 0.241333 -1.82671 2.0602 -0.73711 -2.38682 0.454304 -1.47289 -0.77831 0.976755 -1.48475 0.866343 1.0015 17.8424 27.5241 -10.2963 -8.72399 0.820784 -4.17591 10.8463 -15.8623 -14.7741 -7.23555 42.7331 101.73 -1.06108e-005 1.23363e-007 -1.89359e-006 -17.0049 41.208 15.6051 4.48393e-006 -4.44774e-006 -3.00995 8.03022 -4.95136 0.697629 -82.0901 3.23371 1.45346 -91.9536 20.2106 -28.8463 -1.12459e-005 -6.69949e-007 -3.01035e-006 2.40425 -0.0157721 0.569395 6.68563e-007 1.98269e-006 3.28395 -8.03123 -4.95136 -0.697588 174.635 -2.75468 -1.24868 180 7.01522e-015 178.819 177.684 7.16294 179.597 3.98562e-006 -6.56714e-007 0.157112 -20.3844 69.8819 21.2419 8.17627 25.8139 -2.71041 -175.424 -3.09261 1.35789 4.54188e-006 -4.6773e-006 -1.16564 -1.88303 -2.96681 0.0417395 2.92584e-006 -1.62902e-006 -0.033169 19.0248 68.2094 -19.7216 -8.13649 25.2327 3.48773 
54.8283 95.7216 13.4705 0.240734 -1.85095 2.04749 -0.735829 -2.38215 0.453473 -1.4714 -0.768839 0.974161 -1.48323 0.875815 0.998882 17.7909 27.5516 -10.2738 -8.68406 0.784633 -4.16847 10.9725 -15.8514 -14.738 -7.09233 42.7691 101.504 -1.06108e-005 1.23363e-007 -1.89359e-006 -16.9556 40.9252 15.4668 4.48392e-006 -4.44774e-006 -3.00995 8.03022 -4.95136 0.697629 -82.0642 3.21724 1.45592 -91.9911 20.1951 -28.7896 -1.12459e-005 -6.69949e-007 -3.01035e-006 2.34818 -0.015217 0.580665 6.68563e-007 1.98269e-006 3.28403 -8.03123 -4.95136 -0.697588 174.627 -2.77777 -1.23582 180 7.01522e-015 178.819 177.673 7.15511 179.598 3.98562e-006 -6.56714e-007 0.15648 -20.372 69.8681 21.2278 8.17637 25.8154 -2.70828 -175.43 -3.12468 1.35914 4.54188e-006 -4.6773e-006 -1.16606 -1.88328 -2.96338 0.0418318 2.92584e-006 -1.62902e-006 -0.0331609 19.0231 68.2077 -19.7172 -8.13649 25.2327 3.48773 
